<?xml version="1.0" encoding="UTF-8" ?>
<svg
   preserveAspectRatio="xMidYMid meet"
   viewBox="0 0 147.36891 138.24796"
   version="1.1"
   xml:space="preserve"
   xmlns="http://www.w3.org/2000/svg"
   xmlns:svg="http://www.w3.org/2000/svg"><defs
     id="defs1" /><g
     id="layer1"
     transform="translate(-29.701074,-54.403776)"><path
       fill="currentColor"
       d="m 77.193784,192.19299 c -5.225584,-1.39428 -9.446905,-4.55888 -12.33753,-9.24909 -0.831307,-1.34884 -1.267748,-1.8293 -1.553095,-1.70975 -0.218282,0.0915 -1.051719,0.32759 -1.852084,0.52474 -6.89248,1.69776 -13.912003,-3.24579 -15.07926,-10.61968 -0.269669,-1.70357 -0.195257,-2.52957 0.893826,-9.92188 0.65339,-4.43498 1.565833,-10.68298 2.02765,-13.88444 l 0.839668,-5.82083 -3.157971,-7.67292 c -2.905208,-7.05877 -3.214259,-7.6835 -3.861212,-7.8052 -1.660423,-0.31236 -2.275298,-1.96156 -1.378151,-3.69645 0.519217,-1.00406 1.375693,-1.56444 4.237325,-2.77243 1.309688,-0.55287 2.85448,-1.24461 3.432872,-1.5372 l 1.051621,-0.53199 -1.246961,-1.12894 c -0.714378,-0.64677 -2.124069,-1.50177 -3.30058,-2.00186 -1.807956,-0.76849 -2.338474,-0.87349 -4.434869,-0.8777 -2.222091,-0.004 -2.513383,0.061 -4.35816,0.97922 -1.457089,0.72527 -2.311572,0.98401 -3.249645,0.98401 -2.57288,0 -4.166154,-1.28348 -4.166154,-3.35611 0,-1.47111 0.493249,-2.43085 1.843141,-3.58631 1.225702,-1.04915 2.190627,-1.37741 5.259397,-1.78921 2.970126,-0.39856 3.480796,-0.61475 3.480796,-1.47358 0,-0.38132 -0.253976,-1.04998 -0.564391,-1.48592 -1.386953,-1.9478 -0.795746,-4.375214 1.290349,-5.297994 2.487869,-1.1005 5.605926,-0.21465 8.304593,2.359364 2.790475,2.66157 4.771565,6.05055 6.966765,11.91778 0.394733,1.05503 0.784285,1.91823 0.865671,1.91823 0.08139,0 1.907839,-0.7739 4.058784,-1.71979 4.220334,-1.8559 5.274637,-2.04909 6.856643,-1.25636 1.162632,0.58259 1.553613,1.58166 1.104751,2.82297 -0.308301,0.85259 -0.199956,1.21338 2.084805,6.9424 3.780976,9.48077 3.3517,8.73441 6.52935,11.35223 1.524906,1.25625 2.870887,2.18296 2.991069,2.05934 0.328885,-0.33827 6.81547,-11.59403 7.905835,-13.7185 l 0.950568,-1.85208 0.07897,-9.03979 c 0.08762,-10.03065 0.04987,-10.307824 -1.572246,-11.542234 -0.488383,-0.37165 -1.217275,-0.75791 -1.619758,-0.85836 -1.135049,-0.28326 -1.781753,-1.30601 -1.781753,-2.817811 0,-0.715206 0.186501,-1.661029 0.414448,-2.101829 0.816265,-1.578482 0.492903,-1.553557 20.148409,-1.553106 16.54538,3.79e-4 18.00544,0.03623 18.85637,0.463021 1.11928,0.561374 1.58211,1.413715 1.58728,2.923144 0.006,1.628521 -0.56444,2.551761 -1.90415,3.084081 -0.62405,0.24795 -1.41788,0.7092 -1.76406,1.02498 -1.2943,1.180684 -1.35557,1.672984 -1.34632,10.818264 0.008,7.42421 0.069,8.71433 0.46979,9.86422 0.5098,1.46247 7.1595,12.90313 7.42478,12.77418 4.47394,-2.1748 13.49823,-6.86623 13.70695,-7.1258 0.15775,-0.19619 2.63015,-4.78145 5.49421,-10.18946 4.63622,-8.75427 5.18907,-9.93037 5.04042,-10.72274 -0.12685,-0.67619 -0.0347,-1.05817 0.3838,-1.59016 0.74683,-0.94944 1.79469,-1.13599 3.20689,-0.57094 1.74267,0.69728 19.34427,10.37367 20.02545,11.00889 0.43111,0.40203 0.59419,0.85259 0.59126,1.63351 -0.005,1.23386 -0.11791,1.44483 -1.11703,2.08053 -0.39831,0.25343 -0.97968,0.96505 -1.29194,1.58139 -0.31226,0.61633 -2.8141,5.06799 -5.55965,9.89256 -5.62085,9.87716 -5.21747,8.65301 -4.7232,14.33355 0.98658,11.33856 2.11168,25.82925 2.1092,27.16533 -0.0101,5.44533 -3.63006,9.63237 -8.93635,10.33627 -1.80466,0.2394 -4.55284,-0.27314 -7.21065,-1.34477 -1.22819,-0.49522 -2.30879,-0.81589 -2.40133,-0.71261 -0.0925,0.10327 -0.4222,0.96168 -0.73256,1.90756 -0.80069,2.44019 -1.89707,4.22304 -3.90775,6.35446 -2.19317,2.32488 -4.81168,4.07752 -7.88742,5.27928 l -2.39039,0.93397 -26.98749,0.0553 c -25.612233,0.0524 -27.081891,0.0301 -28.839592,-0.43891 z m 54.504166,-4.9109 c 3.74795,-0.79039 7.09554,-3.01641 9.21817,-6.12975 1.99667,-2.92859 2.42259,-4.39279 2.41066,-8.28715 -0.009,-2.94048 -0.0879,-3.50455 -0.71158,-5.08574 -0.38579,-0.97814 -4.11823,-7.64564 -8.29431,-14.81666 -12.93906,-22.2185 -14.01021,-24.06261 -15.79528,-27.19344 -2.96338,-5.19748 -2.93249,-5.04263 -3.04552,-15.26623 -0.10458,-9.45827 0.035,-10.998824 1.14462,-12.633944 l 0.6375,-0.93941 h -11.89828 c -6.544048,0 -11.898271,0.0709 -11.898271,0.1576 0,0.0867 0.239382,0.49377 0.531961,0.90466 0.292579,0.41089 0.649766,1.36825 0.79375,2.127484 0.332346,1.75245 0.327909,16.13502 -0.0058,18.77068 -0.287287,2.26907 -1.305245,4.5025 -4.703109,10.31875 -1.147684,1.96453 -3.734598,6.42937 -5.748699,9.92187 -2.0141,3.4925 -6.188166,10.70473 -9.275702,16.02718 -3.087535,5.32245 -5.91341,10.26863 -6.279721,10.99151 -3.212859,6.34027 -1.396146,14.23646 4.232054,18.39425 1.835362,1.35586 3.834619,2.27342 5.958373,2.73458 2.564184,0.55679 50.090644,0.56018 52.729174,0.004 z m -51.147665,-5.18312 c -4.593434,-0.7791 -7.98671,-4.63236 -7.98671,-9.06937 0,-0.9173 0.158003,-2.19275 0.351117,-2.83434 0.30072,-0.9991 3.188253,-6.10071 11.785439,-20.82218 1.27361,-2.18088 1.915324,-3.02982 2.378018,-3.14595 0.348536,-0.0875 3.327292,-0.092 6.619459,-0.01 6.945932,0.17292 7.076822,0.19993 13.846912,2.85755 7.2562,2.84843 7.81827,2.96692 14.30188,3.0149 3.02186,0.0224 5.59994,0.15189 5.72907,0.28784 0.4425,0.46585 9.10052,15.32706 9.77801,16.78363 0.56498,1.21466 0.67832,1.8492 0.68567,3.83868 0.008,2.16616 -0.0701,2.54405 -0.85653,4.14456 -1.0204,2.07665 -2.17972,3.17136 -4.5461,4.29273 l -1.73232,0.8209 -24.47396,0.0398 c -13.525729,0.022 -25.102919,-0.0669 -25.879955,-0.1987 z m 35.896165,-12.54974 c 1.1537,-0.97078 1.48836,-2.17556 0.96654,-3.47969 -0.50523,-1.26271 -1.56428,-1.9356 -3.04639,-1.9356 -0.9097,0 -1.27251,0.1624 -2.00969,0.89958 -0.76786,0.76785 -0.89959,1.08168 -0.89959,2.14312 0,1.06145 0.13173,1.37527 0.89959,2.14313 0.75788,0.75788 1.08809,0.89958 2.09636,0.89958 0.89468,0 1.39782,-0.16916 1.99318,-0.67012 z m -21.847814,-6.5694 c 1.388257,-0.58759 1.909736,-1.3693 1.909736,-2.86275 0,-1.18114 -0.10092,-1.40796 -0.988307,-2.22118 -0.738707,-0.67698 -1.226473,-0.90571 -1.931368,-0.90571 -2.466351,0 -4.030648,2.37321 -2.959554,4.48997 0.393561,0.77778 1.917738,1.86003 2.619558,1.86003 0.274195,0 0.881666,-0.16217 1.349935,-0.36036 z m 16.688454,-17.97845 c -1.74278,-1.59714 -1.48039,-4.53306 0.51381,-5.74899 1.76578,-1.07666 4.17605,-0.40245 5.03541,1.40852 1.25449,2.64364 -0.38737,5.21348 -3.33235,5.21579 -1.05899,8.3e-4 -1.41362,-0.1392 -2.21687,-0.87532 z m -14.236658,-6.29161 c -2.031629,-1.7838 -1.685869,-4.72178 0.70094,-5.95605 2.261548,-1.16949 4.972728,0.57632 4.972728,3.20209 0,3.02055 -3.458218,4.69915 -5.673668,2.75396 z M 61.346837,176.9397 c 1.15985,-0.41106 1.121225,-0.28481 0.771485,-2.52155 l -0.150198,-0.96058 -0.975927,0.49756 c -1.944586,0.99141 -4.850978,0.35362 -6.102492,-1.33914 -1.331986,-1.80161 -1.322828,-2.08821 0.45703,-14.30289 1.291062,-8.86019 1.732343,-11.31663 2.080902,-11.58355 0.535787,-0.41029 2.838356,-1.11645 3.640421,-1.11645 0.318599,0 1.815036,0.36345 3.325415,0.80766 1.938937,0.57025 3.679409,0.87292 5.921144,1.02969 1.74625,0.12212 3.193733,0.20516 3.21663,0.18453 0.484177,-0.43621 4.323995,-7.59499 4.323995,-8.06145 0,-0.15914 -1.489049,-1.49008 -3.308998,-2.95764 -1.819949,-1.46755 -3.479159,-2.93081 -3.687133,-3.25168 -0.207975,-0.32087 -1.770575,-4.06598 -3.472445,-8.32246 -1.70187,-4.25649 -3.17729,-7.73906 -3.27871,-7.73906 -0.417931,0 -14.98964,6.41498 -15.332418,6.74988 -0.319116,0.31177 0.07198,1.44885 2.732829,7.94546 1.707883,4.16989 3.162529,7.95688 3.232546,8.41553 0.07002,0.45865 -0.721921,6.60845 -1.759862,13.66621 -1.037941,7.05776 -1.95265,13.55526 -2.032686,14.4389 -0.372075,4.10787 2.338353,7.92361 6.198725,8.72656 1.664598,0.34623 2.540523,0.28251 4.199747,-0.30553 z m -1.399994,-39.65136 c -1.814783,-0.7893 -2.126809,-3.19267 -0.583137,-4.49158 1.593814,-1.34111 4.170175,-0.51598 4.565829,1.46229 0.236081,1.1804 -0.502098,2.59788 -1.589514,3.05223 -1.065795,0.44532 -1.322209,0.44286 -2.393178,-0.0229 z m -4.594719,-8.88669 c -0.547662,-0.54766 -0.519114,-1.29024 0.07831,-2.03698 0.43762,-0.547 1.711676,-0.39587 2.169177,0.2573 0.544347,0.77717 0.519543,1.15638 -0.117289,1.79322 -0.677786,0.67778 -1.443747,0.67292 -2.130201,-0.0135 z m 104.249446,46.75046 c 0.58506,-0.38717 1.39217,-1.20024 1.7936,-1.80682 0.95479,-1.44275 1.05639,-3.50613 0.49373,-10.02712 -1.28496,-14.89217 -2.04408,-25.121 -1.94231,-26.17173 0.0921,-0.95042 1.24422,-3.17978 5.71094,-11.05022 3.0776,-5.42278 5.59563,-10.09015 5.59563,-10.37195 0,-0.35501 -0.50785,-0.79189 -1.65365,-1.42258 -0.9095,-0.50062 -4.05398,-2.23286 -6.98773,-3.84941 -2.93375,-1.61655 -5.49359,-2.93862 -5.68854,-2.93794 -0.19495,6.8e-4 -2.78125,4.49529 -5.74732,9.98802 -2.96608,5.49273 -5.70202,10.31942 -6.07988,10.72598 -0.3802,0.40908 -3.73294,2.29271 -7.50736,4.21776 -6.10195,3.11216 -6.80283,3.53594 -6.65414,4.0233 0.48249,1.58144 9.46006,16.53005 9.93695,16.54607 0.4818,0.0162 -3.33914,-8.26676 -5.63298,-12.21103 -0.56486,-0.97127 -1.02692,-1.80471 -1.02681,-1.85208 5.5e-4,-0.22062 2.95901,-0.34923 7.67271,-0.33356 4.87965,0.0162 5.42391,0.0709 10.03863,1.00785 2.68358,0.54488 4.95827,1.03953 5.05484,1.09922 0.0966,0.0597 0.25757,1.33256 0.35775,2.82861 0.10019,1.49604 0.59371,7.62675 1.09672,13.62379 0.50301,5.99703 0.91456,11.50959 0.91456,12.25011 0,1.63315 -0.54064,2.76316 -1.57884,3.30003 -1.21709,0.62939 -2.26438,0.4845 -5.0036,-0.69222 -1.40013,-0.60146 -2.93264,-1.2579 -3.40558,-1.45875 l -0.8599,-0.36519 v 1.60212 1.60211 l 1.78594,0.81166 c 3.50542,1.59312 4.31069,1.81108 6.34234,1.71669 1.53224,-0.0712 2.1212,-0.22816 2.9743,-0.79272 z m -6.88814,-14.18306 c 0.80575,-0.43123 1.19815,-1.72525 0.80846,-2.66606 -0.48602,-1.17335 -1.73086,-1.6457 -3.02667,-1.14845 -0.67778,0.26009 -1.25877,1.62287 -1.06602,2.50046 0.29128,1.32617 1.99092,2.00621 3.28423,1.31405 z m -4.54517,-10.22129 c 0.8134,-0.91032 0.75358,-1.8421 -0.17808,-2.77376 -0.90393,-0.90393 -1.79584,-0.98564 -2.73082,-0.25018 -0.82237,0.64687 -1.01866,1.55915 -0.56675,2.63394 0.61542,1.46365 2.3431,1.65751 3.47565,0.39 z M 61.000406,107.36429 c -1.101284,-1.57066 -1.776545,-2.27539 -2.557409,-2.66902 -2.09593,-1.05653 -2.892434,-2.61339 -2.282522,-4.46144 0.404775,-1.226484 1.59884,-1.978834 3.142704,-1.980154 2.595954,-0.002 4.269034,2.202744 4.258752,5.612614 -0.0102,3.38421 -1.354319,5.21973 -2.561525,3.498 z M 109.59844,86.115755 c -0.86779,-0.867785 -1.18691,-1.839764 -0.93437,-2.84593 0.096,-0.382448 0.51645,-1.037292 0.93437,-1.455208 0.61904,-0.619044 0.98802,-0.759848 1.99118,-0.759848 1.00315,0 1.37213,0.140804 1.99117,0.759848 0.41792,0.417916 0.83839,1.07276 0.93438,1.455208 0.25253,1.006166 -0.0666,1.978145 -0.93438,2.84593 -1.08617,1.086175 -2.89618,1.086175 -3.98235,0 z M 94.661354,83.293554 C 89.88032,81.471993 89.525738,74.82261 94.096153,72.694507 c 3.088309,-1.437998 6.349667,-0.342814 7.887817,2.648775 0.80159,1.55904 0.59908,4.199799 -0.43669,5.694416 -1.50129,2.166355 -4.522778,3.156208 -6.885926,2.255856 z M 110.21688,72.602537 c -2.19898,-0.998355 -3.44328,-3.817833 -2.73224,-6.191054 0.42648,-1.423471 2.19343,-3.190415 3.6169,-3.616898 3.30821,-0.991165 6.69416,1.553556 6.69416,5.031018 0,3.90509 -3.97736,6.412025 -7.57882,4.776934 z M 95.54037,61.601526 c -2.321765,-1.26106 -2.387809,-5.127183 -0.113048,-6.617663 1.91798,-1.256711 4.669028,-0.382244 5.546238,1.762963 0.68779,1.681996 0.42565,2.942895 -0.88414,4.252683 -0.918708,0.918711 -1.127528,1.004349 -2.425448,0.994667 -0.7811,-0.0058 -1.736725,-0.182519 -2.123602,-0.39265 z"
       id="path1" /></g></svg>
